<?xml version="1.0" encoding="UTF-8" standalone="no"?>
<svg
   xmlns:dc="http://purl.org/dc/elements/1.1/"
   xmlns:cc="http://creativecommons.org/ns#"
   xmlns:rdf="http://www.w3.org/1999/02/22-rdf-syntax-ns#"
   xmlns:svg="http://www.w3.org/2000/svg"
   xmlns="http://www.w3.org/2000/svg"
   xmlns:sodipodi="http://sodipodi.sourceforge.net/DTD/sodipodi-0.dtd"
   xmlns:inkscape="http://www.inkscape.org/namespaces/inkscape"
   width="50mm"
   height="50mm"
   viewBox="0 0 50 50"
   version="1.1"
   id="svg8"
   inkscape:version="1.0 (4035a4fb49, 2020-05-01)"
   sodipodi:docname="cuppu.svg">
  <defs
     id="defs2" />
  <sodipodi:namedview
     id="base"
     pagecolor="#ffffff"
     bordercolor="#666666"
     borderopacity="1.0"
     inkscape:pageopacity="0.0"
     inkscape:pageshadow="2"
     inkscape:zoom="5.6568542"
     inkscape:cx="69.413159"
     inkscape:cy="89.111661"
     inkscape:document-units="mm"
     inkscape:current-layer="layer1"
     inkscape:document-rotation="0"
     showgrid="false"
     inkscape:window-width="1920"
     inkscape:window-height="1057"
     inkscape:window-x="-8"
     inkscape:window-y="-8"
     inkscape:window-maximized="1"
     inkscape:showpageshadow="false" />
  <metadata
     id="metadata5">
    <rdf:RDF>
      <cc:Work
         rdf:about="">
        <dc:format>image/svg+xml</dc:format>
        <dc:type
           rdf:resource="http://purl.org/dc/dcmitype/StillImage" />
        <dc:title />
      </cc:Work>
    </rdf:RDF>
  </metadata>
  <g
     inkscape:label="Layer 1"
     inkscape:groupmode="layer"
     id="layer1">
    <g
       aria-label="CUPPU"
       id="text890"
       style="font-style:normal;font-weight:normal;font-size:10.5833px;line-height:1.25;font-family:sans-serif;fill:#000000;fill-opacity:1;stroke:none;stroke-width:0.264583" />
    <rect
       style="opacity:0.993;fill:#4a4a4a;fill-opacity:0.996078;stroke:none;stroke-width:0.340872;stroke-miterlimit:4;stroke-dasharray:none;stroke-opacity:1;paint-order:fill markers stroke"
       id="rect844"
       width="47.971077"
       height="4.3833938"
       x="1.0144615"
       y="22.434132" />
    <rect
       y="-27.191507"
       x="1.0144615"
       height="4.3833938"
       width="47.971077"
       id="rect916"
       style="opacity:0.993;fill:#4a4a4a;fill-opacity:0.996078;stroke:none;stroke-width:0.340872;stroke-miterlimit:4;stroke-dasharray:none;stroke-opacity:1;paint-order:fill markers stroke"
       transform="rotate(90)" />
    <rect
       y="11.850789"
       x="1.0144615"
       height="4.3833938"
       width="47.971077"
       id="rect851"
       style="opacity:0.993;fill:#4a4a4a;fill-opacity:0.997385;stroke:none;stroke-width:0.340872;stroke-miterlimit:4;stroke-dasharray:none;stroke-opacity:0;paint-order:stroke markers fill" />
    <rect
       style="opacity:0.993;fill:#4a4a4a;fill-opacity:0.997385;stroke:none;stroke-width:0.340872;stroke-miterlimit:4;stroke-dasharray:none;stroke-opacity:0;paint-order:stroke markers fill"
       id="rect918"
       width="47.971077"
       height="4.3833938"
       x="1.0144615"
       y="-37.774849"
       transform="rotate(90)" />
    <rect
       style="opacity:0.993;fill:#4a4a4a;fill-opacity:0.997385;stroke:none;stroke-width:0.340872;stroke-miterlimit:4;stroke-dasharray:none;stroke-opacity:0;paint-order:fill markers stroke"
       id="rect853"
       width="47.971077"
       height="4.3829999"
       x="1.0144615"
       y="33.017467" />
    <rect
       y="-16.608156"
       x="1.0144615"
       height="4.3829999"
       width="47.971077"
       id="rect920"
       style="opacity:0.993;fill:#4a4a4a;fill-opacity:0.997385;stroke:none;stroke-width:0.340872;stroke-miterlimit:4;stroke-dasharray:none;stroke-opacity:0;paint-order:fill markers stroke"
       transform="rotate(90)" />
    <path
       id="path849"
       d="M 5.614521,5.6145182 H 44.385485 V 44.385491 H 5.614521 Z"
       style="opacity:0.993;fill:#4a4a4a;fill-opacity:0.997385;stroke:#000000;stroke-width:0.138;stroke-opacity:0;paint-order:fill markers stroke" />
    <path
       style="opacity:0.993;fill:#006fa0;fill-opacity:1;stroke-width:0.128582;paint-order:fill markers stroke"
       d="M 6.9375487,6.9372382 H 43.062675 V 43.062371 H 6.9375487 Z"
       id="path847" />
    <g
       transform="translate(40.743709,7.5465314)"
       style="font-style:normal;font-weight:normal;font-size:10.4683px;line-height:1.25;font-family:sans-serif;fill:#68cdf9;fill-opacity:1;stroke:none;stroke-width:0.261708"
       id="text854"
       aria-label="CUPPU">
      <path
         id="path892"
         style="font-style:normal;font-variant:normal;font-weight:normal;font-stretch:normal;font-family:FixedsysTTF;-inkscape-font-specification:FixedsysTTF;fill:#68cdf9;fill-opacity:1;stroke-width:0.261708"
         d="m -29.355267,17.001363 q 0.04187,-0.02094 0.12562,-0.01047 0.09421,0 0.188429,0.02094 0.104683,0.01047 0.18843,0.04187 0.09421,0.02094 0.125619,0.05234 0.0314,0.0314 0.05234,0.12562 0.0314,0.08375 0.04187,0.188429 0.02094,0.09421 0.02094,0.18843 0.01047,0.08375 -0.01047,0.125619 h 2.721758 q -0.02094,-0.04187 -0.02094,-0.125619 0.01047,-0.09422 0.02094,-0.18843 0.02094,-0.104683 0.04187,-0.188429 0.0314,-0.09422 0.06281,-0.12562 0.0314,-0.0314 0.115151,-0.05234 0.09421,-0.0314 0.18843,-0.04187 0.104683,-0.02094 0.188429,-0.02094 0.09421,-0.01047 0.136088,0.01047 v -1.360879 h -1.41322 v 1.360879 h -1.308538 v -4.920101 h 1.308538 v 1.360879 h 1.41322 v -1.360879 q -0.04187,0.02094 -0.136088,0.02094 -0.08375,-0.01047 -0.188429,-0.02094 -0.09422,-0.02094 -0.18843,-0.04187 -0.08375,-0.0314 -0.115151,-0.06281 -0.0314,-0.0314 -0.06281,-0.115151 -0.02094,-0.09422 -0.04187,-0.188429 -0.01047,-0.104683 -0.02094,-0.18843 0,-0.09422 0.02094,-0.136088 h -2.721758 q 0.02094,0.04187 0.01047,0.136088 0,0.08375 -0.02094,0.18843 -0.01047,0.09421 -0.04187,0.188429 -0.02094,0.08375 -0.05234,0.115151 -0.0314,0.03141 -0.125619,0.06281 -0.08375,0.02094 -0.18843,0.04187 -0.09421,0.01047 -0.188429,0.02094 -0.08375,0 -0.12562,-0.02094 z" />
      <path
         id="path894"
         style="font-style:normal;font-variant:normal;font-weight:normal;font-stretch:normal;font-family:FixedsysTTF;-inkscape-font-specification:FixedsysTTF;fill:#68cdf9;fill-opacity:1;stroke-width:0.261708"
         d="m -23.620929,17.001363 q 0.04187,-0.02094 0.12562,-0.01047 0.09421,0 0.188429,0.02094 0.104683,0.01047 0.18843,0.04187 0.09421,0.02094 0.125619,0.05234 0.0314,0.0314 0.05234,0.12562 0.0314,0.08375 0.04187,0.188429 0.02094,0.09421 0.02094,0.18843 0.01047,0.08375 -0.01047,0.125619 h 2.721758 q -0.02094,-0.04187 -0.02094,-0.125619 0.01047,-0.09422 0.02094,-0.18843 0.02094,-0.104683 0.04187,-0.188429 0.0314,-0.09422 0.06281,-0.12562 0.0314,-0.0314 0.115152,-0.05234 0.09421,-0.0314 0.188429,-0.04187 0.104683,-0.02094 0.18843,-0.02094 0.09421,-0.01047 0.136087,0.01047 v -5.652882 h -1.41322 v 5.652882 h -1.360879 v -5.652882 h -1.413221 z" />
      <path
         id="path896"
         style="font-style:normal;font-variant:normal;font-weight:normal;font-stretch:normal;font-family:FixedsysTTF;-inkscape-font-specification:FixedsysTTF;fill:#68cdf9;fill-opacity:1;stroke-width:0.261708"
         d="m -17.844717,11.29614 v 6.438004 h 1.455094 v -2.878782 h 2.09366 v -0.628098 h 0.680439 v -2.187875 l -0.680439,-0.01047 V 11.29614 Z m 1.455094,0.743249 h 1.35041 v 2.187875 h -1.35041 z" />
      <path
         id="path898"
         style="font-style:normal;font-variant:normal;font-weight:normal;font-stretch:normal;font-family:FixedsysTTF;-inkscape-font-specification:FixedsysTTF;fill:#68cdf9;fill-opacity:1;stroke-width:0.261708"
         d="m -12.078974,11.29614 v 6.438004 h 1.455094 v -2.878782 h 2.0936599 v -0.628098 h 0.6804395 v -2.187875 l -0.6804395,-0.01047 V 11.29614 Z m 1.455094,0.743249 h 1.3504106 v 2.187875 H -10.62388 Z" />
      <path
         id="path900"
         style="font-style:normal;font-variant:normal;font-weight:normal;font-stretch:normal;font-family:FixedsysTTF;-inkscape-font-specification:FixedsysTTF;fill:#68cdf9;fill-opacity:1;stroke-width:0.261708"
         d="m -6.3236988,17.001363 q 0.041873,-0.02094 0.1256196,-0.01047 0.094215,0 0.1884294,0.02094 0.104683,0.01047 0.1884294,0.04187 0.094215,0.02094 0.1256196,0.05234 0.031405,0.0314 0.052341,0.12562 0.031405,0.08375 0.041873,0.188429 0.020937,0.09421 0.020937,0.18843 0.010468,0.08375 -0.010468,0.125619 h 2.721758 q -0.020937,-0.04187 -0.020937,-0.125619 0.010468,-0.09422 0.020937,-0.18843 0.020937,-0.104683 0.041873,-0.188429 0.031405,-0.09422 0.06281,-0.12562 0.031405,-0.0314 0.1151513,-0.05234 0.094215,-0.0314 0.1884294,-0.04187 0.104683,-0.02094 0.1884294,-0.02094 0.094215,-0.01047 0.1360879,0.01047 v -5.652882 h -1.4132205 v 5.652882 h -1.360879 v -5.652882 h -1.4132205 z" />
    </g>
    <g
       transform="translate(40.743709,7.5465314)"
       style="font-style:normal;font-weight:normal;font-size:10.4683px;line-height:1.25;font-family:sans-serif;fill:#68cdf9;fill-opacity:1;stroke:none;stroke-width:0.261708"
       id="text841"
       aria-label="86">
      <path
         id="path903"
         style="font-style:normal;font-variant:normal;font-weight:normal;font-stretch:normal;font-family:FixedsysTTF;-inkscape-font-specification:FixedsysTTF;fill:#68cdf9;fill-opacity:1;stroke-width:0.261708"
         d="m -20.764236,24.172162 q 0.04187,-0.02094 0.125619,-0.01047 0.09421,0 0.18843,0.02094 0.104683,0.01047 0.188429,0.04187 0.09422,0.02094 0.12562,0.05234 0.0314,0.0314 0.05234,0.12562 0.0314,0.08375 0.04187,0.188429 0.02094,0.09422 0.02094,0.18843 0.01047,0.08375 -0.01047,0.125619 h 2.721758 q -0.02094,-0.04187 -0.02094,-0.125619 0.01047,-0.09421 0.02094,-0.18843 0.02094,-0.104683 0.04187,-0.188429 0.0314,-0.09421 0.06281,-0.12562 0.0314,-0.0314 0.115151,-0.05234 0.09422,-0.0314 0.188429,-0.04187 0.104683,-0.02094 0.18843,-0.02094 0.09422,-0.01047 0.136088,0.01047 v -2.146001 h -0.628098 v -0.628098 h 0.628098 v -2.146001 q -0.04187,0.02094 -0.136088,0.02094 -0.08375,-0.01047 -0.18843,-0.02094 -0.09421,-0.02094 -0.188429,-0.04187 -0.08375,-0.0314 -0.115151,-0.06281 -0.03141,-0.0314 -0.06281,-0.115152 -0.02094,-0.09421 -0.04187,-0.188429 -0.01047,-0.104683 -0.02094,-0.18843 0,-0.09421 0.02094,-0.136087 h -2.721758 q 0.02094,0.04187 0.01047,0.136087 0,0.08375 -0.02094,0.18843 -0.01047,0.09422 -0.04187,0.188429 -0.02094,0.08375 -0.05234,0.115152 -0.0314,0.0314 -0.12562,0.06281 -0.08375,0.02094 -0.188429,0.04187 -0.09422,0.01047 -0.18843,0.02094 -0.08375,0 -0.125619,-0.02094 v 2.146001 h 0.628098 v 0.628098 h -0.628098 z m 1.465562,-2.093659 h 0.523415 q -0.02094,0.04187 -0.02094,0.136087 0.01047,0.08375 0.02094,0.18843 0.02094,0.09421 0.04187,0.188429 0.0314,0.08375 0.06281,0.115151 0.0314,0.0314 0.115151,0.06281 0.09421,0.02094 0.18843,0.04187 0.104683,0.01047 0.188429,0.02094 0.09421,0 0.136088,-0.02094 v 1.360879 h -1.256196 z m 0.575756,-1.413221 h -0.575756 v -1.41322 h 1.256196 v 2.09366 h -0.68044 z" />
      <path
         id="path905"
         style="font-style:normal;font-variant:normal;font-weight:normal;font-stretch:normal;font-family:FixedsysTTF;-inkscape-font-specification:FixedsysTTF;fill:#68cdf9;fill-opacity:1;stroke-width:0.261708"
         d="m -14.914747,24.172162 q 0.04187,-0.02094 0.12562,-0.01047 0.09422,0 0.188429,0.02094 0.104683,0.01047 0.18843,0.04187 0.09421,0.02094 0.125619,0.05234 0.03141,0.0314 0.05234,0.12562 0.0314,0.08375 0.04187,0.188429 0.02094,0.09422 0.02094,0.18843 0.01047,0.08375 -0.01047,0.125619 h 2.721758 q -0.02094,-0.04187 -0.02094,-0.125619 0.01047,-0.09421 0.02094,-0.18843 0.02094,-0.104683 0.04187,-0.188429 0.0314,-0.09421 0.06281,-0.12562 0.0314,-0.0314 0.115152,-0.05234 0.09421,-0.0314 0.188429,-0.04187 0.104683,-0.02094 0.18843,-0.02094 0.09421,-0.01047 0.136087,0.01047 v -2.721757 q -0.04187,0.02094 -0.136087,0.02094 -0.08375,-0.01047 -0.18843,-0.02094 -0.09422,-0.02094 -0.188429,-0.04187 -0.08375,-0.0314 -0.115152,-0.06281 -0.0314,-0.0314 -0.06281,-0.12562 -0.02094,-0.09422 -0.04187,-0.198898 -0.01047,-0.115151 -0.02094,-0.209366 0,-0.104683 0.02094,-0.146556 h -1.360879 v -0.680439 q 0.04187,0.02094 0.12562,0.02094 0.09422,-0.01047 0.188429,-0.02094 0.104683,-0.02094 0.18843,-0.04187 0.09422,-0.03141 0.125619,-0.06281 0.01047,-0.01047 0.02094,-0.104683 0.02094,-0.09421 0.03141,-0.198898 0.01047,-0.115151 0.02094,-0.209366 0.01047,-0.09421 0.0314,-0.115151 0.0314,-0.0314 0.115152,-0.05234 0.09421,-0.0314 0.188429,-0.04187 0.104683,-0.02094 0.18843,-0.02094 0.09421,-0.01047 0.136087,0.01047 V 18.51929 h -2.041318 v 1.360879 q -0.04187,-0.02094 -0.146556,-0.01047 -0.09422,0 -0.209366,0.02094 -0.104683,0.01047 -0.198898,0.04187 -0.09422,0.02094 -0.12562,0.05234 -0.02094,0.02094 -0.0314,0.115151 -0.01047,0.09422 -0.02094,0.209366 -0.01047,0.104683 -0.03141,0.198898 -0.01047,0.09421 -0.02094,0.104683 -0.0314,0.0314 -0.125619,0.06281 -0.08375,0.02094 -0.18843,0.04187 -0.09421,0.01047 -0.188429,0.02094 -0.08375,0 -0.12562,-0.02094 z m 1.465562,-2.721757 h 1.256196 v 2.721757 h -1.256196 z" />
    </g>
    <path
       id="path850"
       style="fill:#005b83;fill-opacity:1;stroke:none;stroke-width:0.261707px;stroke-linecap:butt;stroke-linejoin:miter;stroke-opacity:1"
       d="M 43.062675,6.9372382 C 31.438985,37.091551 10.347176,38.025531 6.9372397,37.974941 v 5.08743 H 43.062675 Z" />
    <g
       aria-label="86"
       id="text894"
       style="font-style:normal;font-weight:normal;font-size:10.5833px;line-height:1.25;font-family:sans-serif;fill:#006f9f;fill-opacity:1;stroke:none;stroke-width:0.264583"
       transform="matrix(0.98913327,0,0,0.98913327,-87.594103,-149.36082)">
      <path
         id="path911"
         style="font-style:normal;font-variant:normal;font-weight:normal;font-stretch:normal;font-family:FixedsysTTF;-inkscape-font-specification:FixedsysTTF;fill:#006f9f;fill-opacity:1;stroke-width:0.264583"
         d="m 126.15915,170.10431 v 5.71541 h -1.37563 v -3.76979 c -0.47187,0.67616 -0.9482,1.32715 -1.42885,1.95182 v 1.81797 c 0.0282,-0.0141 0.0707,-0.0179 0.12712,-0.0109 0.0635,0 0.12667,0.007 0.19017,0.0212 0.0705,0.007 0.13424,0.0212 0.19068,0.0424 0.0635,0.0141 0.10596,0.0316 0.12713,0.0527 0.0212,0.0212 0.0386,0.0637 0.0527,0.12713 0.0212,0.0565 0.0353,0.12015 0.0424,0.19068 0.0141,0.0635 0.0212,0.12664 0.0212,0.19017 0.007,0.0565 0.003,0.0989 -0.0109,0.12712 h 2.75177 c -0.0141,-0.0282 -0.0212,-0.0707 -0.0212,-0.12712 0.007,-0.0635 0.0141,-0.1267 0.0212,-0.19017 0.0141,-0.0705 0.0283,-0.13424 0.0424,-0.19068 0.0212,-0.0635 0.0424,-0.10593 0.0636,-0.12713 0.0212,-0.0211 0.0598,-0.0386 0.11627,-0.0527 0.0635,-0.0211 0.12718,-0.0353 0.19068,-0.0424 0.0706,-0.0141 0.13425,-0.0212 0.19069,-0.0212 0.0635,-0.007 0.10924,-0.003 0.13746,0.0109 v -5.71541 z m -8.01295,9.62628 c -0.24192,0.2237 -0.48352,0.44226 -0.72554,0.65578 v 2.68252 h -1.26969 v -1.6061 c -0.49519,0.40221 -0.98958,0.78348 -1.48208,1.14618 v 0.45992 c 0.0282,-0.0141 0.0707,-0.0174 0.12712,-0.0103 0.0635,0 0.12719,0.007 0.19069,0.0212 0.0706,0.007 0.13424,0.0213 0.19069,0.0424 0.0635,0.0141 0.10544,0.0316 0.1266,0.0527 0.0212,0.0211 0.0391,0.0636 0.0532,0.12712 0.0212,0.0565 0.0353,0.12015 0.0424,0.19069 0.0141,0.0635 0.0212,0.12664 0.0212,0.19017 0.007,0.0565 0.003,0.0989 -0.0109,0.12712 h 2.75177 c -0.0141,-0.0282 -0.0212,-0.0707 -0.0212,-0.12712 0.007,-0.0635 0.0141,-0.12664 0.0212,-0.19017 0.0141,-0.0705 0.0283,-0.13424 0.0424,-0.19069 0.0212,-0.0635 0.0424,-0.10592 0.0636,-0.12712 0.0212,-0.0212 0.0598,-0.0386 0.11627,-0.0527 0.0635,-0.0212 0.12719,-0.0354 0.19068,-0.0424 0.0706,-0.0141 0.13373,-0.0212 0.19017,-0.0212 0.0635,-0.007 0.10924,-0.004 0.13746,0.0103 v -2.75125 c -0.0282,0.0141 -0.0739,0.0212 -0.13746,0.0212 -0.0564,-0.007 -0.11961,-0.0141 -0.19017,-0.0212 -0.0635,-0.0141 -0.12718,-0.0283 -0.19068,-0.0424 -0.0564,-0.0212 -0.0951,-0.0424 -0.11627,-0.0636 -0.0212,-0.0211 -0.0424,-0.0636 -0.0636,-0.12712 -0.0141,-0.0635 -0.0283,-0.13044 -0.0424,-0.20102 -0.005,-0.056 -0.0104,-0.10428 -0.0155,-0.15297 z" />
    </g>
  </g>
</svg>
