<?xml version="1.0" encoding="UTF-8" standalone="no"?>
<svg
   xmlns:dc="http://purl.org/dc/elements/1.1/"
   xmlns:cc="http://creativecommons.org/ns#"
   xmlns:rdf="http://www.w3.org/1999/02/22-rdf-syntax-ns#"
   xmlns:svg="http://www.w3.org/2000/svg"
   xmlns="http://www.w3.org/2000/svg"
   xmlns:sodipodi="http://sodipodi.sourceforge.net/DTD/sodipodi-0.dtd"
   xmlns:inkscape="http://www.inkscape.org/namespaces/inkscape"
   sodipodi:docname="cuppulogo.svg"
   inkscape:version="1.0 (4035a4fb49, 2020-05-01)"
   id="svg8"
   version="1.1"
   viewBox="0 0 50 50"
   height="50mm"
   width="50mm">
  <defs
     id="defs2" />
  <sodipodi:namedview
     inkscape:showpageshadow="false"
     inkscape:window-maximized="1"
     inkscape:window-y="-8"
     inkscape:window-x="-8"
     inkscape:window-height="1057"
     inkscape:window-width="1920"
     showgrid="false"
     inkscape:document-rotation="0"
     inkscape:current-layer="layer1"
     inkscape:document-units="mm"
     inkscape:cy="132.27057"
     inkscape:cx="90.093948"
     inkscape:zoom="2.8284271"
     inkscape:pageshadow="2"
     inkscape:pageopacity="0.0"
     borderopacity="1.0"
     bordercolor="#666666"
     pagecolor="#ffffff"
     id="base" />
  <metadata
     id="metadata5">
    <rdf:RDF>
      <cc:Work
         rdf:about="">
        <dc:format>image/svg+xml</dc:format>
        <dc:type
           rdf:resource="http://purl.org/dc/dcmitype/StillImage" />
        <dc:title></dc:title>
      </cc:Work>
    </rdf:RDF>
  </metadata>
  <g
     id="layer1"
     inkscape:groupmode="layer"
     inkscape:label="Layer 1">
    <g
       style="font-style:normal;font-weight:normal;font-size:10.5833px;line-height:1.25;font-family:sans-serif;fill:#000000;fill-opacity:1;stroke:none;stroke-width:0.264583"
       id="text890"
       aria-label="CUPPU" />
    <g
       transform="translate(0.3041634,0.17490149)"
       id="g960">
      <rect
         style="opacity:0.993;fill:#4a4a4a;fill-opacity:0.996078;stroke:none;stroke-width:0.340872;stroke-miterlimit:4;stroke-dasharray:none;stroke-opacity:1;paint-order:fill markers stroke"
         id="rect844"
         width="47.971077"
         height="4.3833938"
         x="0.71029812"
         y="22.25923" />
      <rect
         y="-26.887344"
         x="0.83956003"
         height="4.3833938"
         width="47.971077"
         id="rect916"
         style="opacity:0.993;fill:#4a4a4a;fill-opacity:0.996078;stroke:none;stroke-width:0.340872;stroke-miterlimit:4;stroke-dasharray:none;stroke-opacity:1;paint-order:fill markers stroke"
         transform="rotate(90)" />
      <rect
         y="11.675887"
         x="0.71029812"
         height="4.3833938"
         width="47.971077"
         id="rect851"
         style="opacity:0.993;fill:#4a4a4a;fill-opacity:0.997385;stroke:none;stroke-width:0.340872;stroke-miterlimit:4;stroke-dasharray:none;stroke-opacity:0;paint-order:stroke markers fill" />
      <rect
         style="opacity:0.993;fill:#4a4a4a;fill-opacity:0.997385;stroke:none;stroke-width:0.340872;stroke-miterlimit:4;stroke-dasharray:none;stroke-opacity:0;paint-order:stroke markers fill"
         id="rect918"
         width="47.971077"
         height="4.3833938"
         x="0.83956003"
         y="-37.470684"
         transform="rotate(90)" />
      <rect
         style="opacity:0.993;fill:#4a4a4a;fill-opacity:0.997385;stroke:none;stroke-width:0.340872;stroke-miterlimit:4;stroke-dasharray:none;stroke-opacity:0;paint-order:fill markers stroke"
         id="rect853"
         width="47.971077"
         height="4.3829999"
         x="0.71029812"
         y="32.842567" />
      <rect
         y="-16.303993"
         x="0.83956003"
         height="4.3829999"
         width="47.971077"
         id="rect920"
         style="opacity:0.993;fill:#4a4a4a;fill-opacity:0.997385;stroke:none;stroke-width:0.340872;stroke-miterlimit:4;stroke-dasharray:none;stroke-opacity:0;paint-order:fill markers stroke"
         transform="rotate(90)" />
      <path
         id="path849"
         d="M 5.3103576,5.4396167 H 44.081322 V 44.21059 H 5.3103576 Z"
         style="opacity:0.993;fill:#4a4a4a;fill-opacity:0.997385;stroke:#000000;stroke-width:0.138;stroke-opacity:0;paint-order:fill markers stroke" />
      <path
         style="opacity:0.993;fill:#006fa0;fill-opacity:1;stroke-width:0.128582;paint-order:fill markers stroke"
         d="M 6.6333853,6.7623367 H 42.758512 V 42.88747 H 6.6333853 Z"
         id="path847" />
      <text
         xml:space="preserve"
         style="font-style:normal;font-weight:normal;font-size:10.4683px;line-height:1.25;font-family:sans-serif;fill:#68cdf9;fill-opacity:1;stroke:none;stroke-width:0.261708"
         x="10.468774"
         y="25.099867"
         id="text854"><tspan
           sodipodi:role="line"
           id="tspan852"
           x="10.468774"
           y="25.099867"
           style="font-style:normal;font-variant:normal;font-weight:normal;font-stretch:normal;font-family:FixedsysTTF;-inkscape-font-specification:FixedsysTTF;fill:#68cdf9;fill-opacity:1;stroke-width:0.261708">CUPPU</tspan></text>
      <text
         id="text841"
         y="32.270668"
         x="18.766693"
         style="font-style:normal;font-weight:normal;font-size:10.4683px;line-height:1.25;font-family:sans-serif;fill:#68cdf9;fill-opacity:1;stroke:none;stroke-width:0.261708"
         xml:space="preserve"><tspan
           id="tspan843"
           style="font-style:normal;font-variant:normal;font-weight:normal;font-stretch:normal;font-family:FixedsysTTF;-inkscape-font-specification:FixedsysTTF;fill:#68cdf9;fill-opacity:1;stroke-width:0.261708"
           y="32.270668"
           x="18.766693"
           sodipodi:role="line">86</tspan></text>
      <path
         id="path850"
         style="fill:#005b83;fill-opacity:1;stroke:none;stroke-width:0.261707px;stroke-linecap:butt;stroke-linejoin:miter;stroke-opacity:1"
         d="M 42.758512,6.7623367 C 31.134822,36.91665 10.043013,37.85063 6.6330763,37.80004 v 5.08743 H 42.758512 Z" />
      <g
         aria-label="86"
         id="text894"
         style="font-style:normal;font-weight:normal;font-size:10.5833px;line-height:1.25;font-family:sans-serif;fill:#006f9f;fill-opacity:1;stroke:none;stroke-width:0.264583"
         transform="matrix(0.98913327,0,0,0.98913327,-87.898266,-149.53572)">
        <path
           id="path911"
           style="font-style:normal;font-variant:normal;font-weight:normal;font-stretch:normal;font-family:FixedsysTTF;-inkscape-font-specification:FixedsysTTF;fill:#006f9f;fill-opacity:1;stroke-width:0.264583"
           d="m 126.15915,170.10431 v 5.71541 h -1.37563 v -3.76979 c -0.47187,0.67616 -0.9482,1.32715 -1.42885,1.95182 v 1.81797 c 0.0282,-0.0141 0.0707,-0.0179 0.12712,-0.0109 0.0635,0 0.12667,0.007 0.19017,0.0212 0.0705,0.007 0.13424,0.0212 0.19068,0.0424 0.0635,0.0141 0.10596,0.0316 0.12713,0.0527 0.0212,0.0212 0.0386,0.0637 0.0527,0.12713 0.0212,0.0565 0.0353,0.12015 0.0424,0.19068 0.0141,0.0635 0.0212,0.12664 0.0212,0.19017 0.007,0.0565 0.003,0.0989 -0.0109,0.12712 h 2.75177 c -0.0141,-0.0282 -0.0212,-0.0707 -0.0212,-0.12712 0.007,-0.0635 0.0141,-0.1267 0.0212,-0.19017 0.0141,-0.0705 0.0283,-0.13424 0.0424,-0.19068 0.0212,-0.0635 0.0424,-0.10593 0.0636,-0.12713 0.0212,-0.0211 0.0598,-0.0386 0.11627,-0.0527 0.0635,-0.0211 0.12718,-0.0353 0.19068,-0.0424 0.0706,-0.0141 0.13425,-0.0212 0.19069,-0.0212 0.0635,-0.007 0.10924,-0.003 0.13746,0.0109 v -5.71541 z m -8.01295,9.62628 c -0.24192,0.2237 -0.48352,0.44226 -0.72554,0.65578 v 2.68252 h -1.26969 v -1.6061 c -0.49519,0.40221 -0.98958,0.78348 -1.48208,1.14618 v 0.45992 c 0.0282,-0.0141 0.0707,-0.0174 0.12712,-0.0103 0.0635,0 0.12719,0.007 0.19069,0.0212 0.0706,0.007 0.13424,0.0213 0.19069,0.0424 0.0635,0.0141 0.10544,0.0316 0.1266,0.0527 0.0212,0.0211 0.0391,0.0636 0.0532,0.12712 0.0212,0.0565 0.0353,0.12015 0.0424,0.19069 0.0141,0.0635 0.0212,0.12664 0.0212,0.19017 0.007,0.0565 0.003,0.0989 -0.0109,0.12712 h 2.75177 c -0.0141,-0.0282 -0.0212,-0.0707 -0.0212,-0.12712 0.007,-0.0635 0.0141,-0.12664 0.0212,-0.19017 0.0141,-0.0705 0.0283,-0.13424 0.0424,-0.19069 0.0212,-0.0635 0.0424,-0.10592 0.0636,-0.12712 0.0212,-0.0212 0.0598,-0.0386 0.11627,-0.0527 0.0635,-0.0212 0.12719,-0.0354 0.19068,-0.0424 0.0706,-0.0141 0.13373,-0.0212 0.19017,-0.0212 0.0635,-0.007 0.10924,-0.004 0.13746,0.0103 v -2.75125 c -0.0282,0.0141 -0.0739,0.0212 -0.13746,0.0212 -0.0564,-0.007 -0.11961,-0.0141 -0.19017,-0.0212 -0.0635,-0.0141 -0.12718,-0.0283 -0.19068,-0.0424 -0.0564,-0.0212 -0.0951,-0.0424 -0.11627,-0.0636 -0.0212,-0.0211 -0.0424,-0.0636 -0.0636,-0.12712 -0.0141,-0.0635 -0.0283,-0.13044 -0.0424,-0.20102 -0.005,-0.056 -0.0104,-0.10428 -0.0155,-0.15297 z" />
      </g>
    </g>
  </g>
</svg>
